<svg width="120" height="315" viewBox="0 0 120 315" fill="none" xmlns="http://www.w3.org/2000/svg">
<path d="M112.5 315C108.358 315 105 311.642 105 307.5L105 7.5C105 3.35788 108.358 0 112.5 0C116.642 0 120 3.35788 120 7.5L120 307.5C120 311.642 116.642 315 112.5 315Z" fill="#ADADAD"/>
<path d="M20 20C20 17.2386 22.2386 15 25 15H95C97.7614 15 100 17.2386 100 20C100 22.7614 97.7614 25 95 25H25C22.2386 25 20 22.7614 20 20Z" fill="#ADADAD"/>
<path d="M20 45C20 42.2386 22.2386 40 25 40H95C97.7614 40 100 42.2386 100 45C100 47.7614 97.7614 50 95 50H25C22.2386 50 20 47.7614 20 45Z" fill="#ADADAD"/>
<path d="M20 70C20 67.2386 22.2386 65 25 65H95C97.7614 65 100 67.2386 100 70C100 72.7614 97.7614 75 95 75H25C22.2386 75 20 72.7614 20 70Z" fill="#ADADAD"/>
<path d="M20 120C20 117.239 22.2386 115 25 115H95C97.7614 115 100 117.239 100 120C100 122.761 97.7614 125 95 125H25C22.2386 125 20 122.761 20 120Z" fill="#ADADAD"/>
<path d="M20 145C20 142.239 22.2386 140 25 140H95C97.7614 140 100 142.239 100 145C100 147.761 97.7614 150 95 150H25C22.2386 150 20 147.761 20 145Z" fill="#ADADAD"/>
<path d="M20 170C20 167.239 22.2386 165 25 165H95C97.7614 165 100 167.239 100 170C100 172.761 97.7614 175 95 175H25C22.2386 175 20 172.761 20 170Z" fill="#ADADAD"/>
<path d="M20 195C20 192.239 22.2386 190 25 190H95C97.7614 190 100 192.239 100 195C100 197.761 97.7614 200 95 200H25C22.2386 200 20 197.761 20 195Z" fill="#ADADAD"/>
<path d="M20 245C20 242.239 22.2386 240 25 240H95C97.7614 240 100 242.239 100 245C100 247.761 97.7614 250 95 250H25C22.2386 250 20 247.761 20 245Z" fill="#ADADAD"/>
<path d="M20 270C20 267.239 22.2386 265 25 265H95C97.7614 265 100 267.239 100 270C100 272.761 97.7614 275 95 275H25C22.2386 275 20 272.761 20 270Z" fill="#ADADAD"/>
<path d="M20 295C20 292.239 22.2386 290 25 290H95C97.7614 290 100 292.239 100 295C100 297.761 97.7614 300 95 300H25C22.2386 300 20 297.761 20 295Z" fill="#ADADAD"/>
<path d="M0 95C0 92.2386 2.23858 90 5 90H95C97.7614 90 100 92.2386 100 95C100 97.7614 97.7614 100 95 100H5C2.23858 100 0 97.7614 0 95Z" fill="#ADADAD"/>
<path d="M0 220C0 217.239 2.23858 215 5 215H95C97.7614 215 100 217.239 100 220C100 222.761 97.7614 225 95 225H5C2.23858 225 0 222.761 0 220Z" fill="#ADADAD"/>
</svg>
